<svg width="300" height="300" viewBox="0 0 300 300" fill="none" xmlns="http://www.w3.org/2000/svg">
<path fill-rule="evenodd" clip-rule="evenodd" d="M124.326 1.29686C62.1762 12.8159 15.7702 57.8199 2.19017 119.745C0.693172 126.573 0.326172 132.474 0.326172 149.745C0.326172 167.016 0.693172 172.917 2.19017 179.745C8.78617 209.822 22.7912 235.63 43.8072 256.433C64.9252 277.337 89.9872 290.837 119.826 297.381C126.654 298.878 132.555 299.245 149.826 299.245C167.097 299.245 172.998 298.878 179.826 297.381C209.665 290.837 234.727 277.337 255.845 256.433C276.861 235.63 290.866 209.822 297.462 179.745C298.959 172.917 299.326 167.016 299.326 149.745C299.326 132.474 298.959 126.573 297.462 119.745C290.918 89.9059 277.418 64.8439 256.514 43.7259C236.143 23.1469 211.433 9.51286 181.915 2.56586C170.303 -0.167136 136.271 -0.917136 124.326 1.29686Z" fill="#00856F"/>
<path fill-rule="evenodd" clip-rule="evenodd" d="M127.347 0.798879C75.5402 8.86988 31.6202 43.0649 11.1812 91.2449C2.30224 112.176 -0.70276 129.721 0.13424 155.745C0.91424 180.022 4.66124 195.432 14.8422 216.245C32.2312 251.792 65.2632 280.625 102.326 292.607C120.122 298.361 126.416 299.239 149.826 299.239C167.081 299.239 173.004 298.872 179.826 297.378C212.985 290.117 240.411 274.154 262.733 249.122C279.816 229.965 291.631 206.361 297.459 179.745C300.139 167.505 300.139 131.985 297.459 119.745C284.455 60.3569 241.08 16.3749 181.915 2.58588C172.06 0.288879 137.819 -0.833121 127.347 0.798879Z" fill="#00856F"/>
<path fill-rule="evenodd" clip-rule="evenodd" d="M134.411 41.7819C110.71 45.5189 89.6369 56.1759 72.9469 72.8659C58.7049 87.1079 49.5149 103.255 44.0869 123.575C41.8039 132.12 41.5029 135.165 41.5029 149.745C41.5029 164.325 41.8039 167.37 44.0869 175.915C54.7999 216.016 83.5549 244.771 123.656 255.484C132.201 257.767 135.246 258.068 149.826 258.068C164.406 258.068 167.451 257.767 175.996 255.484C216.097 244.771 244.852 216.016 255.565 175.915C257.848 167.37 258.149 164.325 258.149 149.745C258.149 135.165 257.848 132.12 255.565 123.575C244.845 83.4459 215.662 54.2999 175.996 44.1029C165.089 41.2999 144.688 40.1609 134.411 41.7819ZM171.326 64.7109C195.881 70.8929 217.444 88.4539 228.464 111.245C235.178 125.133 237.098 133.691 237.098 149.745C237.098 165.799 235.178 174.357 228.464 188.245C217.474 210.974 196.311 228.251 171.326 234.891C160 237.901 139.652 237.901 128.326 234.891C103.341 228.251 82.1779 210.974 71.1879 188.245C64.4739 174.357 62.5539 165.799 62.5539 149.745C62.5539 133.691 64.4739 125.133 71.1879 111.245C83.6489 85.4749 108.49 67.2729 137.326 62.7859C145.901 61.4509 161.998 62.3629 171.326 64.7109ZM132.826 109.245V134.745H107.826H82.8259V149.245V163.745H107.826H132.826V189.245V214.745H147.309H161.792L162.059 189.495L162.326 164.245L187.576 163.978L212.826 163.711V149.245V134.779L187.576 134.512L162.326 134.245L162.059 108.995L161.792 83.7449H147.309H132.826V109.245Z" fill="white"/>
</svg>
